<svg xmlns="http://www.w3.org/2000/svg" width="168" height="59" viewBox="0 0 168 59">
  <g id="crossword_logo" transform="translate(21694.453 605)">
    <rect id="Rectangle_1" data-name="Rectangle 1" width="168" height="59" transform="translate(-21694.453 -605)" fill="#ffe619"/>
    <g id="crossword_logo-2" data-name="crossword_logo" transform="translate(-21795.766 -624.205)">
      <path id="Path_15954" data-name="Path 15954" d="M147.033,76.8A10.39,10.39,0,0,0,147.966,75l2.47.976a14.471,14.471,0,0,1-1.33,2.441,12.277,12.277,0,0,1-6.611,5.007,6.76,6.76,0,0,1-6.611-1.177c-1.574-1.412-2.551-3.779-2.551-7.04a15.148,15.148,0,0,1,2.551-8.518,12.284,12.284,0,0,1,6.611-5.007,6.763,6.763,0,0,1,6.611,1.176,6.6,6.6,0,0,1,1.33,1.672L148.011,66.9a4.814,4.814,0,0,0-.973-1.348,4.5,4.5,0,0,0-4.541-.891,8.275,8.275,0,0,0-4.541,3.522,11.206,11.206,0,0,0-1.736,6.133,6.88,6.88,0,0,0,1.744,5.112,4.5,4.5,0,0,0,4.533.906,8.278,8.278,0,0,0,4.537-3.525" transform="translate(-16.411 -21.583)" fill-rule="evenodd"/>
      <path id="Path_15955" data-name="Path 15955" d="M111.069,77.9a1.063,1.063,0,0,1-.469-.108l-8.687-4.242a1.078,1.078,0,0,1-.6-.966V28.421a1.161,1.161,0,0,1,.881-1.029l28.324-8.164a.577.577,0,1,1,.32,1.109L102.512,28.5a.228.228,0,0,0-.046.022V72.537l8.611,4.206,28.265-8.21V25.545L111.505,33.72a.577.577,0,1,1-.325-1.107l27.941-8.205a1.072,1.072,0,0,1,1.375,1.029V68.595a1.077,1.077,0,0,1-.774,1.03L111.368,77.86a1.087,1.087,0,0,1-.3.042" transform="translate(0 0)"/>
      <path id="Path_15956" data-name="Path 15956" d="M111.661,33.952a.577.577,0,0,1-.156-1.132l27.939-7.861a.577.577,0,0,1,.313,1.111L111.818,33.93a.565.565,0,0,1-.157.022" transform="translate(-5.008 -2.937)"/>
      <path id="Path_15957" data-name="Path 15957" d="M30.179,175.318a4.109,4.109,0,0,0,.648-.9l1.716.991a5.808,5.808,0,0,1-.923,1.2,6.726,6.726,0,0,1-9.179,0,6.735,6.735,0,0,1,0-9.1,6.727,6.727,0,0,1,9.179,0,5.854,5.854,0,0,1,.923,1.2l-1.684.973a4.118,4.118,0,0,0-.676-.954,4.5,4.5,0,0,0-6.306,0,5.085,5.085,0,0,0,.005,6.581,4.471,4.471,0,0,0,6.3,0m11.274-5a2.041,2.041,0,0,0,.168-.88,2.018,2.018,0,0,0-.168-.871,1.605,1.605,0,0,0-.544-.627h0a1.939,1.939,0,0,0-.845-.345,6.573,6.573,0,0,0-1.1-.065H37.853v3.82H38.96a6.747,6.747,0,0,0,1.1-.063,1.993,1.993,0,0,0,.847-.331,1.688,1.688,0,0,0,.544-.636m1.439,1.331a3.572,3.572,0,0,1-1.913,1.15l3.34,5.2.134.209H42.084l-.04-.066-3.108-5.129H37.853v5.194H35.886V165.875h3.545a6.038,6.038,0,0,1,1.676.216,3.846,3.846,0,0,1,1.31.652h0a3.2,3.2,0,0,1,.909,1.165,3.553,3.553,0,0,1,.313,1.493,3.413,3.413,0,0,1-.75,2.246m13.07,3.669a5.1,5.1,0,0,0,0-6.586,4.5,4.5,0,0,0-6.306,0,5.084,5.084,0,0,0,.005,6.581,4.472,4.472,0,0,0,6.3,0m1.44-7.809a6.733,6.733,0,0,1,0,9.1,6.726,6.726,0,0,1-9.179,0,6.734,6.734,0,0,1,0-9.1,6.726,6.726,0,0,1,9.179,0m12.3,5.981a3.231,3.231,0,0,1,.234,1.229,3.448,3.448,0,0,1-.339,1.5,3.608,3.608,0,0,1-.97,1.225h0a4.14,4.14,0,0,1-1.366.73,5.488,5.488,0,0,1-1.676.245,4.619,4.619,0,0,1-2.6-.787,6.888,6.888,0,0,1-1.4-1.289l-.077-.089.077-.089,1-1.136.11-.126.1.134a4.631,4.631,0,0,0,1.4,1.238,3.164,3.164,0,0,0,1.556.438,2.474,2.474,0,0,0,1.623-.536,1.731,1.731,0,0,0,.6-1.357c0-1.123-1.2-1.6-1.806-1.841l-.066-.026h0c-.316-.123-.685-.268-1.03-.41s-.67-.283-.9-.4a4.468,4.468,0,0,1-.554-.307,3.706,3.706,0,0,1-.692-.579h0a2.843,2.843,0,0,1-.586-.9,3.373,3.373,0,0,1-.24-1.3,3.1,3.1,0,0,1,.3-1.334,3.256,3.256,0,0,1,.853-1.1,3.738,3.738,0,0,1,1.274-.689,5.189,5.189,0,0,1,1.593-.234,4.651,4.651,0,0,1,2.418.666,5.313,5.313,0,0,1,1.143.932l.08.084-.071.092-.891,1.154-.1.125-.109-.115a4.527,4.527,0,0,0-1.073-.858,3.035,3.035,0,0,0-1.487-.394,2.324,2.324,0,0,0-1.455.424,1.371,1.371,0,0,0-.507,1.119,1.473,1.473,0,0,0,.461,1.128,3.192,3.192,0,0,0,1.011.582h0l2.221.927,0,0a5.582,5.582,0,0,1,.815.486,3.391,3.391,0,0,1,.6.528l0,0a3.459,3.459,0,0,1,.532.886m10.85,0a3.231,3.231,0,0,1,.234,1.229,3.455,3.455,0,0,1-.339,1.5,3.615,3.615,0,0,1-.97,1.225h0a4.14,4.14,0,0,1-1.366.73,5.487,5.487,0,0,1-1.676.245,4.618,4.618,0,0,1-2.6-.787,6.888,6.888,0,0,1-1.4-1.289l-.078-.089.078-.089,1-1.136.111-.126.1.134a4.635,4.635,0,0,0,1.395,1.238,3.168,3.168,0,0,0,1.557.438,2.476,2.476,0,0,0,1.623-.536,1.731,1.731,0,0,0,.6-1.357c0-1.123-1.2-1.6-1.806-1.841l-.066-.026h0c-.316-.123-.685-.268-1.03-.41s-.67-.283-.9-.4a4.4,4.4,0,0,1-.554-.307,3.706,3.706,0,0,1-.692-.579h0a2.841,2.841,0,0,1-.585-.9,3.373,3.373,0,0,1-.24-1.3,3.092,3.092,0,0,1,.3-1.334,3.238,3.238,0,0,1,.853-1.1,3.744,3.744,0,0,1,1.274-.689,5.194,5.194,0,0,1,1.593-.234,4.65,4.65,0,0,1,2.418.666,5.3,5.3,0,0,1,1.143.932l.08.084-.071.092-.891,1.154-.1.125-.109-.115a4.539,4.539,0,0,0-1.073-.858,3.036,3.036,0,0,0-1.486-.394,2.325,2.325,0,0,0-1.456.424,1.37,1.37,0,0,0-.507,1.119,1.473,1.473,0,0,0,.461,1.128,3.19,3.19,0,0,0,1.011.582h0l2.221.927.005,0a5.61,5.61,0,0,1,.815.486,3.392,3.392,0,0,1,.6.528l0,0a3.459,3.459,0,0,1,.532.886M94.7,175.016l2.479-9.041.028-.1h2.066l-.05.173-3.48,12.066-.029.1H93.853l-.029-.1-2.773-9.306L88.3,178.115l-.03.1H86.4l-.029-.1-3.48-12.066-.05-.173h2.067l.027.1,2.48,9.041,2.646-9.043.029-.1h1.933l.029.1Zm15.6.3a5.1,5.1,0,0,0,0-6.586,4.5,4.5,0,0,0-6.306,0,5.084,5.084,0,0,0,0,6.581,4.473,4.473,0,0,0,6.3,0m1.44-7.809a6.733,6.733,0,0,1,0,9.1,6.726,6.726,0,0,1-9.179,0,6.732,6.732,0,0,1,0-9.1,6.726,6.726,0,0,1,9.179,0m10.488,2.809a2.041,2.041,0,0,0,.169-.88,2.018,2.018,0,0,0-.169-.871,1.6,1.6,0,0,0-.544-.627h0a1.944,1.944,0,0,0-.845-.345,6.579,6.579,0,0,0-1.1-.065h-1.106v3.82h1.106a6.753,6.753,0,0,0,1.1-.063,1.986,1.986,0,0,0,.846-.331,1.677,1.677,0,0,0,.544-.636m1.439,1.331a3.574,3.574,0,0,1-1.913,1.15l3.339,5.2.134.209h-2.37l-.04-.066-3.107-5.129h-1.083v5.194h-1.968V165.875h3.546a6.043,6.043,0,0,1,1.676.216,3.862,3.862,0,0,1,1.31.652h0a3.206,3.206,0,0,1,.91,1.165,3.56,3.56,0,0,1,.313,1.493,3.41,3.41,0,0,1-.75,2.246m12.359,2.477a4.673,4.673,0,0,0,.454-2.083,4.729,4.729,0,0,0-.454-2.092,4.384,4.384,0,0,0-.937-1.271,3.759,3.759,0,0,0-1.359-.8,5.373,5.373,0,0,0-1.766-.279h-1.805v8.874h1.805a5.373,5.373,0,0,0,1.766-.279,3.759,3.759,0,0,0,1.359-.8,4.411,4.411,0,0,0,.937-1.265m1.835-4.916a6.769,6.769,0,0,1,0,5.667,5.818,5.818,0,0,1-1.293,1.725,5.911,5.911,0,0,1-2.057,1.195,7.7,7.7,0,0,1-2.546.415h-3.772V165.876h3.772a7.712,7.712,0,0,1,2.547.415,5.923,5.923,0,0,1,2.056,1.194,5.817,5.817,0,0,1,1.293,1.725" transform="translate(130.581 -123.994)" fill-rule="evenodd"/>
    </g>
  </g>
</svg>
